<?xml version="1.0" encoding="UTF-8"?><svg xmlns="http://www.w3.org/2000/svg" viewBox="0 0 1000 1000"><defs><style>.cls-1{fill:#fff;stroke-width:0px;}</style></defs><g id="Layer_1"><path class="cls-1" d="m848.86,346.32H205.99c-9.52,0-17.52,6.47-19.84,15.25v-21.75c0-18.62-15.14-33.87-33.76-34l-21.43-.14-.27,39.99,15.46.11v348.17h40v-59.84c2.32,8.78,10.32,15.25,19.84,15.25h94.34v38.08c0,1.09.89,1.98,1.98,1.98h318.74c1.09,0,1.97-.89,1.97-1.98v-38.08h225.84c11.34,0,20.52-9.19,20.52-20.52v-262c0-11.33-9.18-20.52-20.52-20.52Zm-491.86,293.68c-79.53,0-144-64.47-144-144s64.47-144,144-144,144,64.47,144,144-64.47,144-144,144Zm348,0c-79.53,0-144-64.47-144-144s64.47-144,144-144,144,64.47,144,144-64.47,144-144,144Z"/><circle class="cls-1" cx="358" cy="496" r="48"/><circle class="cls-1" cx="706" cy="496" r="48"/></g><g id="Layer_2"><path class="cls-1" d="m960.69,305.37c-25.18-59.54-61.23-113.01-107.14-158.92-45.91-45.91-99.38-81.96-158.92-107.14C633.11,13.28,567.79.07,500.47,0c-.06,0-.13,0-.19,0-.09,0-.19,0-.28,0-.07,0-.14,0-.21,0-.02,0-.04,0-.06,0-67.39.03-132.78,13.26-194.36,39.3-59.54,25.18-113.01,61.23-158.92,107.14-45.91,45.91-81.96,99.38-107.14,158.92C13.22,367.03,0,432.51,0,500s13.22,132.97,39.31,194.63c25.18,59.54,61.23,113.01,107.14,158.92,45.91,45.91,99.38,81.96,158.92,107.14,61.66,26.08,127.14,39.31,194.63,39.31s132.97-13.22,194.63-39.31c59.54-25.18,113.01-61.23,158.92-107.14,45.91-45.91,81.96-99.38,107.14-158.92,26.08-61.66,39.31-127.14,39.31-194.63s-13.22-132.97-39.31-194.63Zm-107.8-68.09h-131.03c-.13-.38-.25-.77-.38-1.15-20.28-60.67-48.8-111.8-84.75-151.96-1.08-1.21-2.16-2.4-3.25-3.57,88.53,28.24,164.99,83.77,219.41,156.68Zm-322.95-163.59c18.33,10.04,41.74,26.73,65.36,54.03,21.08,24.37,43.96,59.56,62.85,109.55h-128.2V73.69Zm-59.88-.74v164.32h-134.16c16.81-43.15,38.52-79.88,64.94-109.43,25.1-28.07,50.01-44.93,69.21-54.9Zm-108.65,9.3c-.49.52-.98,1.04-1.46,1.56-37.1,40.16-66.53,91.32-87.48,152.03-.16.47-.32.95-.48,1.42h-124.88c53.37-71.5,127.94-126.29,214.3-155.02Zm-215.39,678.97h125.46c.33.97.65,1.95.99,2.92,20.94,60.72,50.38,111.87,87.48,152.03.49.53.98,1.04,1.46,1.56-86.96-28.92-161.95-84.28-215.39-156.52Zm324.04,165.87c-37.11-19.21-95.61-64.21-134.92-165.87h134.92v165.87Zm59.88-.78v-165.08h128.77c-18.99,50.8-42.12,86.44-63.41,111.05-23.62,27.31-47.03,43.99-65.36,54.03Zm103.54-6.91c1.08-1.17,2.16-2.36,3.25-3.57,35.96-40.16,64.47-91.29,84.75-151.96.29-.88.58-1.77.87-2.65h131.63c-54.49,73.64-131.37,129.75-220.5,158.18Zm305.6-389.46c-4.15,61.41-20.93,119.41-47.79,171.41h-152.58c.88-3.96,1.72-7.96,2.55-11.99h-61.36c-.92,4.06-1.86,8.06-2.83,11.99h-16.42c-5.75,16.33-21.33,28.07-39.6,28.07h-318.74c-22.5,0-40.93-17.8-41.94-40.06h-8.37c.85,4.02,1.72,8.03,2.63,11.99h-28.48v32.6h-120v-37.64c-25.37-50.69-41.22-106.93-45.23-166.37h45.23v-59.88h-45.23c3.12-46.28,13.43-90.62,29.82-131.91l.22-32.74.27-39.99,39.99.26,21.45.14c24.66.17,46.52,12.54,59.85,31.33h42.45c-.7,3.03-1.39,6.09-2.05,9.16h61.61c.74-3.08,1.5-6.13,2.27-9.16h153.26v9.16h59.88v-9.16h146.76c.75,3.01,1.49,6.07,2.21,9.16h61.46c-.65-3.07-1.31-6.13-1.99-9.16h152.12c27.32,52.38,44.4,110.9,48.58,172.9h-29.7v59.88h29.7Z"/></g></svg>